<?xml version="1.0" standalone="no"?>
<!DOCTYPE svg PUBLIC "-//W3C//DTD SVG 20010904//EN"
 "http://www.w3.org/TR/2001/REC-SVG-20010904/DTD/svg10.dtd">
<svg version="1.0" xmlns="http://www.w3.org/2000/svg"
 width="406.000000pt" height="406.000000pt" viewBox="0 0 406.000000 406.000000"
 preserveAspectRatio="xMidYMid meet">
<metadata>
Created by potrace 1.14, written by Peter Selinger 2001-2017
</metadata>
<g transform="translate(0.000000,406.000000) scale(0.100000,-0.100000)"
fill="#000000" stroke="none">
<path d="M0 2030 l0 -2030 2030 0 2030 0 0 2030 0 2030 -1696 0 c-1504 0
-1695 -2 -1684 -15 8 -10 24 -13 48 -11 38 5 43 1 142 -96 27 -25 61 -54 76
-65 16 -10 38 -26 49 -35 11 -9 32 -27 47 -40 15 -13 44 -32 65 -43 21 -11 40
-22 43 -25 19 -20 91 -70 99 -70 6 0 11 -4 11 -9 0 -5 37 -37 83 -72 87 -67
148 -125 210 -202 21 -25 44 -52 52 -59 7 -7 44 -40 80 -73 37 -33 92 -91 123
-130 61 -75 72 -86 83 -79 9 5 33 -25 25 -33 -3 -3 -6 -1 -6 5 0 7 -5 12 -10
12 -6 0 -5 -8 2 -20 7 -10 14 -18 16 -16 2 2 18 -10 35 -28 18 -17 49 -44 69
-59 31 -23 41 -26 58 -17 15 8 20 8 20 -3 0 -7 14 -26 31 -43 17 -16 40 -45
52 -64 46 -77 88 -99 51 -28 -15 29 -15 30 1 24 9 -3 18 -6 21 -6 2 0 10 -13
19 -30 9 -16 21 -30 28 -30 6 0 25 -25 41 -55 15 -30 32 -52 36 -50 9 5 70
-54 70 -67 0 -4 6 -13 13 -20 6 -7 32 -53 55 -103 109 -225 149 -303 175 -342
31 -46 49 -122 35 -147 -5 -9 -7 -41 -5 -71 2 -31 0 -58 -5 -61 -8 -5 -5 -23
10 -63 3 -8 1 -12 -5 -8 -14 9 -57 -48 -73 -97 -8 -27 -38 -64 -90 -115 -80
-78 -115 -104 -162 -122 -16 -6 -28 -15 -28 -20 0 -21 -176 -90 -213 -84 -139
24 -166 27 -520 51 -74 5 -75 5 -153 82 -29 28 -57 52 -61 52 -5 0 -26 17 -47
37 -21 21 -53 48 -70 61 l-31 24 35 -6 c29 -6 32 -5 16 5 -30 18 -87 80 -81
88 2 5 -18 30 -45 57 -27 27 -50 54 -50 59 0 6 -22 35 -50 65 -27 29 -48 56
-45 58 2 2 20 -8 39 -23 34 -26 50 -21 24 7 -7 7 -20 22 -28 32 -14 18 -14 19
10 6 24 -13 24 -12 10 6 -8 10 -17 21 -20 24 -18 17 -70 89 -70 97 0 6 -13 28
-28 49 -38 51 -57 89 -43 80 15 -10 14 6 -3 29 -8 11 -12 25 -9 32 4 9 0 11
-11 7 -16 -6 -23 10 -9 19 5 2 3 2 -4 1 -6 -2 -17 4 -24 12 -10 12 -9 13 7 7
14 -5 8 7 -19 42 -52 69 -82 126 -62 119 8 -4 15 -4 15 0 0 10 -94 161 -102
164 -4 2 -1 10 7 18 8 8 11 22 8 31 -5 12 -2 15 10 10 35 -13 28 25 -15 78
-18 22 -81 122 -95 150 l-15 30 25 -28 c18 -20 27 -24 31 -15 4 9 8 10 11 2 3
-6 13 -20 21 -30 9 -10 4 4 -10 31 -13 28 -30 67 -37 88 -7 20 -17 37 -21 37
-4 0 -8 7 -8 16 0 9 -9 29 -20 45 -12 15 -22 45 -24 64 -2 20 -9 42 -16 48
-10 10 -12 8 -7 -5 4 -10 2 -18 -3 -18 -6 0 -10 9 -10 19 0 10 -6 21 -14 24
-17 7 -27 55 -12 60 8 3 7 8 -1 18 -7 8 -13 24 -13 34 -1 11 -2 39 -3 62 -1
23 -5 39 -9 37 -5 -3 -8 6 -8 20 0 34 -10 57 -23 49 -6 -3 -7 -1 -3 6 4 6 3
18 -3 25 -6 7 -12 26 -14 42 -2 16 -19 63 -39 104 -21 41 -38 93 -40 115 -2
22 -10 46 -18 53 -13 11 -11 12 13 7 28 -6 35 3 16 22 -8 8 -8 13 0 17 12 8
15 96 3 96 -4 0 -9 14 -10 30 -3 39 17 47 69 27 37 -15 39 -14 39 4 0 18 -10
19 -245 19 l-245 0 0 -2030z m680 883 c0 -9 -1 -14 -3 -12 -1 2 -11 15 -22 28
l-20 24 23 -12 c12 -6 22 -19 22 -28z"/>
<path d="M1880 2562 c0 -15 51 -25 63 -13 8 8 5 11 -10 11 -12 0 -28 3 -37 6
-9 3 -16 2 -16 -4z"/>
<path d="M1747 2553 c-4 -3 -23 -6 -42 -5 -25 1 -35 -3 -35 -13 0 -10 12 -15
38 -16 20 0 45 -2 55 -4 9 -2 17 3 17 10 0 16 -25 37 -33 28z"/>
<path d="M1838 2474 c-8 -9 -33 -17 -54 -18 -22 -2 -47 -7 -57 -11 -17 -7 -17
-9 5 -32 19 -20 29 -23 58 -18 41 8 63 23 56 41 -3 7 2 15 10 18 15 6 20 36 6
36 -4 0 -15 -7 -24 -16z"/>
<path d="M1905 2478 c-2 -7 -8 -29 -13 -47 -6 -28 -15 -37 -39 -43 -17 -4 -33
-16 -37 -25 -3 -10 -8 -23 -11 -29 -11 -22 60 -1 81 24 16 20 31 26 68 28 26
1 50 5 53 8 4 3 -7 25 -23 49 -30 42 -70 60 -79 35z"/>
<path d="M2040 2460 c-11 -11 -20 -27 -20 -35 0 -8 9 -19 20 -25 11 -6 20 -18
20 -27 0 -13 -3 -14 -12 -5 -9 9 -18 6 -40 -14 -26 -25 -26 -28 -13 -55 23
-44 62 -82 70 -68 6 8 10 7 17 -2 11 -17 0 67 -13 96 -8 16 -6 16 7 -2 22 -30
36 -29 28 2 -13 50 3 23 26 -45 13 -40 27 -67 33 -63 6 4 8 -1 4 -11 -5 -12
-3 -16 5 -13 18 6 13 95 -6 132 -9 17 -16 35 -16 40 0 15 -43 16 -52 2 -6 -9
-8 -9 -8 1 0 7 -4 10 -10 7 -5 -3 -10 -1 -10 5 0 9 48 34 59 30 2 -1 9 6 14
15 8 14 11 15 18 4 7 -11 9 -10 9 4 0 11 8 17 23 18 15 0 17 2 7 6 -8 3 -19
11 -23 17 -6 8 -10 8 -13 -1 -4 -8 -15 -9 -37 -2 -47 13 -65 11 -87 -11z"/>
<path d="M1558 2413 c-24 -6 -52 -53 -40 -65 15 -15 77 23 77 47 0 20 -10 25
-37 18z"/>
<path d="M1684 2409 c-3 -6 -1 -16 5 -22 9 -9 14 -8 21 3 9 15 4 30 -10 30 -5
0 -12 -5 -16 -11z"/>
<path d="M2273 2403 c-7 -2 -13 -16 -13 -29 0 -21 4 -24 40 -22 37 1 39 3 25
18 -8 9 -15 22 -15 28 0 12 -15 14 -37 5z"/>
<path d="M2200 2370 c0 -11 4 -20 9 -20 5 0 7 9 4 20 -3 11 -7 20 -9 20 -2 0
-4 -9 -4 -20z"/>
<path d="M1420 2372 c0 -5 -10 -14 -22 -20 -22 -10 -22 -11 -2 -11 20 -1 44
16 44 31 0 4 -4 8 -10 8 -5 0 -10 -4 -10 -8z"/>
<path d="M1562 2337 c-18 -8 -23 -17 -20 -38 4 -23 -1 -29 -29 -40 -21 -8 -33
-20 -33 -31 0 -12 5 -17 13 -13 6 3 2 -2 -10 -11 -35 -25 -30 -54 8 -54 44 0
69 17 69 45 0 27 -1 27 85 26 64 -1 88 7 83 30 -2 9 5 14 19 14 23 1 51 20 42
30 -3 3 -27 9 -54 14 -26 5 -51 14 -54 20 -10 16 -91 21 -119 8z m103 -47 c3
-5 -3 -10 -14 -10 -12 0 -21 5 -21 10 0 6 6 10 14 10 8 0 18 -4 21 -10z"/>
<path d="M1355 2330 c-3 -5 -1 -10 4 -10 6 0 11 5 11 10 0 6 -2 10 -4 10 -3 0
-8 -4 -11 -10z"/>
<path d="M1740 2329 c0 -5 5 -7 10 -4 6 3 10 8 10 11 0 2 -4 4 -10 4 -5 0 -10
-5 -10 -11z"/>
<path d="M2194 2326 c-5 -14 21 -76 32 -76 3 0 4 15 2 33 -2 21 1 31 10 30 6
-2 12 4 12 12 0 19 -49 20 -56 1z"/>
<path d="M2293 2309 c4 -22 26 -41 39 -33 14 9 8 26 -7 20 -10 -4 -15 1 -15
14 0 11 -4 20 -10 20 -5 0 -8 -9 -7 -21z"/>
<path d="M2362 2310 c9 -6 15 -17 12 -25 -4 -10 0 -15 15 -15 36 0 22 33 -19
44 -20 6 -22 5 -8 -4z"/>
<path d="M1375 2300 c-8 -13 35 -13 55 0 11 7 7 10 -17 10 -17 0 -35 -4 -38
-10z"/>
<path d="M1310 2296 c0 -2 7 -6 15 -10 8 -3 15 -1 15 4 0 6 -7 10 -15 10 -8 0
-15 -2 -15 -4z"/>
<path d="M1900 2290 c0 -5 5 -10 11 -10 5 0 7 5 4 10 -3 6 -8 10 -11 10 -2 0
-4 -4 -4 -10z"/>
<path d="M2308 2243 c7 -3 16 -2 19 1 4 3 -2 6 -13 5 -11 0 -14 -3 -6 -6z"/>
<path d="M1274 2226 c-10 -27 2 -43 14 -19 8 14 9 24 2 28 -6 3 -13 -1 -16 -9z"/>
<path d="M1740 2217 c-30 -19 -32 -22 -14 -25 29 -4 76 16 72 30 -7 19 -21 18
-58 -5z"/>
<path d="M1455 2210 c-3 -5 -1 -10 4 -10 6 0 11 5 11 10 0 6 -2 10 -4 10 -3 0
-8 -4 -11 -10z"/>
<path d="M1410 2201 c0 -5 7 -11 15 -15 9 -3 15 0 15 9 0 8 -7 15 -15 15 -8 0
-15 -4 -15 -9z"/>
<path d="M1298 2173 c-21 -5 -21 -4 -9 -37 8 -18 15 -23 30 -19 12 3 21 10 21
15 0 5 5 6 10 3 15 -9 12 15 -4 31 -15 14 -19 15 -48 7z"/>
<path d="M1565 2157 c-22 -11 -41 -24 -43 -28 -2 -5 -10 -5 -18 -2 -8 3 -22 2
-31 -1 -14 -6 -15 -9 -4 -16 12 -7 11 -11 -4 -27 -10 -10 -29 -25 -42 -34 -21
-14 -22 -17 -8 -29 11 -9 15 -9 15 -1 0 7 5 9 12 5 6 -4 8 -3 4 4 -11 18 9 22
48 10 22 -7 35 -17 32 -24 -3 -7 2 -10 15 -7 10 3 25 1 32 -5 7 -6 24 -15 37
-20 24 -9 25 -8 26 39 0 27 -3 49 -8 49 -19 0 -6 20 16 26 17 4 34 -1 54 -16
19 -14 37 -20 48 -16 9 3 23 1 30 -5 11 -9 14 -8 14 4 0 9 11 29 25 45 20 24
22 31 10 36 -8 3 -22 3 -31 -1 -10 -3 -17 1 -20 13 -5 16 -16 19 -87 21 -67 2
-89 -2 -122 -20z"/>
<path d="M1805 2070 c-3 -5 -1 -10 4 -10 6 0 11 5 11 10 0 6 -2 10 -4 10 -3 0
-8 -4 -11 -10z"/>
<path d="M1660 2051 c0 -5 7 -12 16 -15 27 -10 36 -7 20 9 -16 17 -36 20 -36
6z"/>
<path d="M1830 1990 c0 -5 5 -10 10 -10 6 0 10 5 10 10 0 6 -4 10 -10 10 -5 0
-10 -4 -10 -10z"/>
<path d="M1665 1880 c-3 -5 -1 -10 4 -10 6 0 11 5 11 10 0 6 -2 10 -4 10 -3 0
-8 -4 -11 -10z"/>
</g>
</svg>
